<svg xmlns="http://www.w3.org/2000/svg" version="1.1" viewBox="0 0 24 24" height="24" width="24">
  <path d="M 12,3.6666667 C 16.595,3.6666667 20.333333,7.405 20.333333,12 20.333333,16.595 16.595,20.333333 12,20.333333 7.405,20.333333 3.6666667,16.595 3.6666667,12 3.6666667,7.405 7.405,3.6666667 12,3.6666667 Z M 12,2 C 6.4775,2 2,6.4775 2,12 2,17.5225 6.4775,22 12,22 17.5225,22 22,17.5225 22,12 22,6.4775 17.5225,2 12,2 Z m 0.833333,15 h -1.666666 v -6.666667 h 1.666666 z M 12,6.7916667 c 0.575,0 1.041667,0.4666666 1.041667,1.0416666 C 13.041667,8.4083333 12.575,8.875 12,8.875 c -0.575,0 -1.041667,-0.4666667 -1.041667,-1.0416667 0,-0.575 0.466667,-1.0416666 1.041667,-1.0416666 z" />
</svg>