<svg width="24" height="24" viewBox="0 0 24 24" fill="none" xmlns="http://www.w3.org/2000/svg">
<g clip-path="url(#clip0)">
<path d="M13.5 23.5C13.4745 23.5 13.4491 23.498 13.424 23.494L0.424 21.494C0.305983 21.4759 0.198357 21.4161 0.120589 21.3255C0.0428206 21.2349 4.54341e-05 21.1194 0 21L0 4C6.66312e-05 3.88691 0.0384697 3.77718 0.10894 3.68873C0.179409 3.60028 0.277783 3.53833 0.388 3.513L13.388 0.513002C13.4613 0.495567 13.5376 0.495025 13.6111 0.511416C13.6847 0.527807 13.7535 0.560702 13.8125 0.607615C13.8714 0.654528 13.9189 0.714231 13.9514 0.782209C13.9839 0.850187 14.0005 0.924662 14 1V23C14.0005 23.0658 13.988 23.1311 13.963 23.192C13.9381 23.2529 13.9013 23.3082 13.8547 23.3547C13.8082 23.4013 13.7529 23.4381 13.692 23.463C13.6311 23.488 13.5658 23.5005 13.5 23.5V23.5ZM1 20.571L13 22.417V1.628L1 4.398V20.571V20.571Z" fill="black"/>
<path d="M23.5 21.5H13.5C13.3674 21.5 13.2402 21.4473 13.1464 21.3536C13.0527 21.2598 13 21.1326 13 21C13 20.8674 13.0527 20.7402 13.1464 20.6464C13.2402 20.5527 13.3674 20.5 13.5 20.5H23V3.5H13.5C13.3674 3.5 13.2402 3.44732 13.1464 3.35355C13.0527 3.25979 13 3.13261 13 3C13 2.86739 13.0527 2.74021 13.1464 2.64645C13.2402 2.55268 13.3674 2.5 13.5 2.5H23.5C23.6326 2.5 23.7598 2.55268 23.8536 2.64645C23.9473 2.74021 24 2.86739 24 3V21C24 21.1326 23.9473 21.2598 23.8536 21.3536C23.7598 21.4473 23.6326 21.5 23.5 21.5ZM9.5 16.5C9.41514 16.5003 9.33163 16.4788 9.25741 16.4377C9.18319 16.3966 9.12073 16.3371 9.076 16.265L4.076 8.265C4.0412 8.20932 4.01771 8.14733 4.00686 8.08257C3.99602 8.01781 3.99804 7.95155 4.0128 7.88757C4.04262 7.75836 4.12255 7.64628 4.235 7.576C4.34745 7.50572 4.48322 7.48299 4.61243 7.5128C4.74164 7.54262 4.85372 7.62255 4.924 7.735L9.924 15.735C9.9713 15.8107 9.99749 15.8977 9.99983 15.9869C10.0022 16.0761 9.98059 16.1643 9.93732 16.2424C9.89406 16.3204 9.83068 16.3855 9.75378 16.4308C9.67688 16.4761 9.58925 16.5 9.5 16.5V16.5Z" fill="black"/>
<path d="M4.5 16.5C4.41075 16.5 4.32312 16.4761 4.24622 16.4308C4.16932 16.3855 4.10595 16.3204 4.06268 16.2424C4.01941 16.1643 3.99783 16.0761 4.00017 15.9869C4.00251 15.8977 4.0287 15.8107 4.076 15.735L9.076 7.735C9.14628 7.62255 9.25836 7.54262 9.38757 7.5128C9.51678 7.48299 9.65255 7.50572 9.765 7.576C9.87745 7.64628 9.95738 7.75836 9.9872 7.88757C10.017 8.01678 9.99428 8.15255 9.924 8.265L4.924 16.265C4.87906 16.3369 4.81656 16.3962 4.74239 16.4373C4.66821 16.4784 4.5848 16.5 4.5 16.5V16.5ZM17.5 21.5C17.3674 21.5 17.2402 21.4473 17.1464 21.3536C17.0527 21.2598 17 21.1326 17 21V3C17 2.86739 17.0527 2.74021 17.1464 2.64645C17.2402 2.55268 17.3674 2.5 17.5 2.5C17.6326 2.5 17.7598 2.55268 17.8536 2.64645C17.9473 2.74021 18 2.86739 18 3V21C18 21.1326 17.9473 21.2598 17.8536 21.3536C17.7598 21.4473 17.6326 21.5 17.5 21.5Z" fill="black"/>
<path d="M23.5 18.5H13.5C13.3674 18.5 13.2402 18.4473 13.1464 18.3536C13.0527 18.2598 13 18.1326 13 18C13 17.8674 13.0527 17.7402 13.1464 17.6464C13.2402 17.5527 13.3674 17.5 13.5 17.5H23.5C23.6326 17.5 23.7598 17.5527 23.8536 17.6464C23.9473 17.7402 24 17.8674 24 18C24 18.1326 23.9473 18.2598 23.8536 18.3536C23.7598 18.4473 23.6326 18.5 23.5 18.5ZM23.5 15.5H13.5C13.3674 15.5 13.2402 15.4473 13.1464 15.3536C13.0527 15.2598 13 15.1326 13 15C13 14.8674 13.0527 14.7402 13.1464 14.6464C13.2402 14.5527 13.3674 14.5 13.5 14.5H23.5C23.6326 14.5 23.7598 14.5527 23.8536 14.6464C23.9473 14.7402 24 14.8674 24 15C24 15.1326 23.9473 15.2598 23.8536 15.3536C23.7598 15.4473 23.6326 15.5 23.5 15.5ZM23.5 12.5H13.5C13.3674 12.5 13.2402 12.4473 13.1464 12.3536C13.0527 12.2598 13 12.1326 13 12C13 11.8674 13.0527 11.7402 13.1464 11.6464C13.2402 11.5527 13.3674 11.5 13.5 11.5H23.5C23.6326 11.5 23.7598 11.5527 23.8536 11.6464C23.9473 11.7402 24 11.8674 24 12C24 12.1326 23.9473 12.2598 23.8536 12.3536C23.7598 12.4473 23.6326 12.5 23.5 12.5ZM23.5 9.5H13.5C13.3674 9.5 13.2402 9.44732 13.1464 9.35355C13.0527 9.25979 13 9.13261 13 9C13 8.86739 13.0527 8.74021 13.1464 8.64645C13.2402 8.55268 13.3674 8.5 13.5 8.5H23.5C23.6326 8.5 23.7598 8.55268 23.8536 8.64645C23.9473 8.74021 24 8.86739 24 9C24 9.13261 23.9473 9.25979 23.8536 9.35355C23.7598 9.44732 23.6326 9.5 23.5 9.5ZM23.5 6.5H13.5C13.3674 6.5 13.2402 6.44732 13.1464 6.35355C13.0527 6.25979 13 6.13261 13 6C13 5.86739 13.0527 5.74021 13.1464 5.64645C13.2402 5.55268 13.3674 5.5 13.5 5.5H23.5C23.6326 5.5 23.7598 5.55268 23.8536 5.64645C23.9473 5.74021 24 5.86739 24 6C24 6.13261 23.9473 6.25979 23.8536 6.35355C23.7598 6.44732 23.6326 6.5 23.5 6.5Z" fill="black"/>
</g>
<defs>
<clipPath id="clip0">
<rect width="24" height="24" fill="white"/>
</clipPath>
</defs>
</svg>
