<svg xmlns="http://www.w3.org/2000/svg" version="1.1" viewBox="0 0 24 24" height="24" width="24"><path style="stroke-width:0.833333" d="M 13.515011,15.871667 C 12.454179,16.535833 11.243347,16.918333 10.013349,17 L 9.5658494,15.3475 c 1.7358316,-0.01583 3.4433286,-0.7925 4.5749936,-2.27 1.779165,-2.325 1.519998,-5.575 -0.479166,-7.615 L 12.185013,7.3908333 10.710015,2 h 5.537492 l -1.564164,2.1275 c 2.562496,2.4508333 3.067496,6.3825 1.185831,9.385 L 22,19.643333 19.643336,22 Z M 4.3283562,14.935 C 2.8025249,13.480833 2.0050259,11.496667 2.000026,9.5 1.9958593,7.91 2.4933586,6.315 3.5333573,4.9566667 4.8975221,3.175 6.9091862,2.1516667 8.9908502,2.0158333 l 0.4533327,1.6508334 c -1.7391644,0.0125 -3.4516622,0.8241666 -4.584994,2.305 C 3.0766912,8.3008333 3.3408575,11.559167 5.3500216,13.6 L 6.828353,11.669167 8.3100177,17 H 2.7775249 Z" /></svg>