<?xml version="1.0" encoding="UTF-8" standalone="no"?>
<svg
   xmlns:dc="http://purl.org/dc/elements/1.1/"
   xmlns:cc="http://creativecommons.org/ns#"
   xmlns:rdf="http://www.w3.org/1999/02/22-rdf-syntax-ns#"
   xmlns:svg="http://www.w3.org/2000/svg"
   xmlns="http://www.w3.org/2000/svg"
   xmlns:sodipodi="http://sodipodi.sourceforge.net/DTD/sodipodi-0.dtd"
   xmlns:inkscape="http://www.inkscape.org/namespaces/inkscape"
   inkscape:version="1.1-dev (ddb55ca, 2020-02-02)"
   sodipodi:docname="add.svg"
   id="svg180"
   version="1.1"
   viewBox="0 0 24 24"
   height="24"
   width="24">
  <metadata
     id="metadata186">
    <rdf:RDF>
      <cc:Work
         rdf:about="">
        <dc:format>image/svg+xml</dc:format>
        <dc:type
           rdf:resource="http://purl.org/dc/dcmitype/StillImage" />
      </cc:Work>
    </rdf:RDF>
  </metadata>
  <defs
     id="defs184" />
  <sodipodi:namedview
     inkscape:current-layer="svg180"
     inkscape:window-maximized="0"
     inkscape:window-y="23"
     inkscape:window-x="0"
     inkscape:cy="12"
     inkscape:cx="12"
     inkscape:zoom="24.875"
     showgrid="false"
     id="namedview182"
     inkscape:window-height="805"
     inkscape:window-width="1440"
     inkscape:pageshadow="2"
     inkscape:pageopacity="0"
     guidetolerance="10"
     gridtolerance="10"
     objecttolerance="10"
     borderopacity="1"
     bordercolor="#666666"
     pagecolor="#ffffff" />
  <path
     style="stroke-width:0.833333"
     inkscape:connector-curvature="0"
     id="path178"
     d="M 12,3.6666667 C 16.595,3.6666667 20.333333,7.405 20.333333,12 20.333333,16.595 16.595,20.333333 12,20.333333 7.405,20.333333 3.6666667,16.595 3.6666667,12 3.6666667,7.405 7.405,3.6666667 12,3.6666667 Z M 12,2 C 6.4775,2 2,6.4775 2,12 2,17.5225 6.4775,22 12,22 17.5225,22 22,17.5225 22,12 22,6.4775 17.5225,2 12,2 Z m 5,10.833333 H 12.833333 V 17 H 11.166667 V 12.833333 H 7 v -1.666666 h 4.166667 V 7 h 1.666666 v 4.166667 H 17 Z" />
</svg>
