<?xml version="1.0" encoding="UTF-8" standalone="no"?>
<svg
   xmlns:dc="http://purl.org/dc/elements/1.1/"
   xmlns:cc="http://creativecommons.org/ns#"
   xmlns:rdf="http://www.w3.org/1999/02/22-rdf-syntax-ns#"
   xmlns:svg="http://www.w3.org/2000/svg"
   xmlns="http://www.w3.org/2000/svg"
   xmlns:sodipodi="http://sodipodi.sourceforge.net/DTD/sodipodi-0.dtd"
   xmlns:inkscape="http://www.inkscape.org/namespaces/inkscape"
   inkscape:version="1.1-dev (ddb55ca, 2020-02-02)"
   sodipodi:docname="help.svg"
   id="svg304"
   version="1.1"
   viewBox="0 0 24 24"
   height="24"
   width="24">
  <metadata
     id="metadata310">
    <rdf:RDF>
      <cc:Work
         rdf:about="">
        <dc:format>image/svg+xml</dc:format>
        <dc:type
           rdf:resource="http://purl.org/dc/dcmitype/StillImage" />
      </cc:Work>
    </rdf:RDF>
  </metadata>
  <defs
     id="defs308" />
  <sodipodi:namedview
     inkscape:current-layer="svg304"
     inkscape:window-maximized="0"
     inkscape:window-y="23"
     inkscape:window-x="0"
     inkscape:cy="12"
     inkscape:cx="12"
     inkscape:zoom="24.875"
     showgrid="false"
     id="namedview306"
     inkscape:window-height="805"
     inkscape:window-width="1311"
     inkscape:pageshadow="2"
     inkscape:pageopacity="0"
     guidetolerance="10"
     gridtolerance="10"
     objecttolerance="10"
     borderopacity="1"
     bordercolor="#666666"
     pagecolor="#ffffff" />
  <path
     style="stroke-width:0.833333"
     inkscape:connector-curvature="0"
     id="path302"
     d="M 12,3.6666667 C 16.595,3.6666667 20.333333,7.405 20.333333,12 20.333333,16.595 16.595,20.333333 12,20.333333 7.405,20.333333 3.6666667,16.595 3.6666667,12 3.6666667,7.405 7.405,3.6666667 12,3.6666667 Z M 12,2 C 6.4775,2 2,6.4775 2,12 2,17.5225 6.4775,22 12,22 17.5225,22 22,17.5225 22,12 22,6.4775 17.5225,2 12,2 Z m 1.041667,14.166667 c 0,0.575 -0.465834,1.041666 -1.041667,1.041666 -0.574167,0 -1.041667,-0.466666 -1.041667,-1.041666 0,-0.575 0.4675,-1.041667 1.041667,-1.041667 0.575833,0 1.041667,0.466667 1.041667,1.041667 z M 14.2025,7.835 C 13.695833,7.3216667 12.94,7.0391667 12.076667,7.0391667 10.26,7.0391667 9.085,8.3308333 9.085,10.330833 h 1.675833 c 0,-1.238333 0.690834,-1.6774997 1.281667,-1.6774997 0.528333,0 1.089167,0.3508334 1.136667,1.0216667 0.05167,0.705833 -0.325,1.064167 -0.801667,1.5175 -1.176667,1.119167 -1.198333,1.660833 -1.193333,2.89 H 12.855 c -0.01083,-0.553333 0.025,-1.0025 0.779167,-1.815 0.564166,-0.608333 1.265833,-1.365 1.28,-2.5183333 0.0092,-0.77 -0.236667,-1.4325 -0.711667,-1.9141667 z" />
</svg>
