<?xml version="1.0" encoding="UTF-8" standalone="no"?>
<svg
   xmlns:dc="http://purl.org/dc/elements/1.1/"
   xmlns:cc="http://creativecommons.org/ns#"
   xmlns:rdf="http://www.w3.org/1999/02/22-rdf-syntax-ns#"
   xmlns:svg="http://www.w3.org/2000/svg"
   xmlns="http://www.w3.org/2000/svg"
   xmlns:sodipodi="http://sodipodi.sourceforge.net/DTD/sodipodi-0.dtd"
   xmlns:inkscape="http://www.inkscape.org/namespaces/inkscape"
   inkscape:version="1.1-dev (ddb55ca, 2020-02-02)"
   sodipodi:docname="info.svg"
   id="svg425"
   version="1.1"
   viewBox="0 0 24 24"
   height="24"
   width="24">
  <metadata
     id="metadata431">
    <rdf:RDF>
      <cc:Work
         rdf:about="">
        <dc:format>image/svg+xml</dc:format>
        <dc:type
           rdf:resource="http://purl.org/dc/dcmitype/StillImage" />
      </cc:Work>
    </rdf:RDF>
  </metadata>
  <defs
     id="defs429" />
  <sodipodi:namedview
     inkscape:current-layer="svg425"
     inkscape:window-maximized="0"
     inkscape:window-y="23"
     inkscape:window-x="0"
     inkscape:cy="12"
     inkscape:cx="12"
     inkscape:zoom="24.708333"
     showgrid="false"
     id="namedview427"
     inkscape:window-height="777"
     inkscape:window-width="1331"
     inkscape:pageshadow="2"
     inkscape:pageopacity="0"
     guidetolerance="10"
     gridtolerance="10"
     objecttolerance="10"
     borderopacity="1"
     bordercolor="#666666"
     pagecolor="#ffffff" />
  <path
     style="stroke-width:0.833333"
     inkscape:connector-curvature="0"
     id="path423"
     d="M 12,3.6666667 C 16.595,3.6666667 20.333333,7.405 20.333333,12 20.333333,16.595 16.595,20.333333 12,20.333333 7.405,20.333333 3.6666667,16.595 3.6666667,12 3.6666667,7.405 7.405,3.6666667 12,3.6666667 Z M 12,2 C 6.4775,2 2,6.4775 2,12 2,17.5225 6.4775,22 12,22 17.5225,22 22,17.5225 22,12 22,6.4775 17.5225,2 12,2 Z m 0.833333,15 h -1.666666 v -6.666667 h 1.666666 z M 12,6.7916667 c 0.575,0 1.041667,0.4666666 1.041667,1.0416666 C 13.041667,8.4083333 12.575,8.875 12,8.875 c -0.575,0 -1.041667,-0.4666667 -1.041667,-1.0416667 0,-0.575 0.466667,-1.0416666 1.041667,-1.0416666 z" />
</svg>
